<?xml version="1.0" encoding="utf-8"?>
<!-- Generator: Adobe Illustrator 23.0.3, SVG Export Plug-In . SVG Version: 6.00 Build 0)  -->
<svg version="1.1" id="图层_1" xmlns="http://www.w3.org/2000/svg" xmlns:xlink="http://www.w3.org/1999/xlink" x="0px" y="0px"
	 viewBox="0 0 1000 1000" style="enable-background:new 0 0 1000 1000;" xml:space="preserve">
<style type="text/css">
	.st0{fill-rule:evenodd;clip-rule:evenodd;fill:#011F5B;}
	.st1{fill-rule:evenodd;clip-rule:evenodd;fill:#990000;}
</style>
<g id="Settings">
	<g>
		<path class="st0" d="M614.8,726.8c-27.3-9.5-45.8-35.2-45.9-64c-0.1-27.1,16.6-52.4,41.7-63l3.5-1.4c8.4-2.8,13.2-12.2,10.7-20.9
			c-6.5-22.4-15.7-44-27.2-64.5c-4.3-7.6-16.1-9.6-24.1-6.2c-26,11-55.5,5.6-75.2-13.9c-20.1-19.9-25.7-50.8-13.9-76.8
			c3.7-8.1,0.5-17.8-7.3-22.1c-20.5-11.2-42-20.1-64.1-26.3c-8.7-2.4-17.8,2.3-20.8,10.9c-9,25.9-36.3,45.7-63.9,45.9
			c-28.7,0.1-54.6-18.1-64.4-45.3c-3-8.5-12.2-13.2-20.9-10.6c-22.2,6.5-43.6,15.5-63.8,26.9c-7.8,4.4-10.9,14-7.1,22.2
			c12.1,25.9,6.8,56.8-13.1,76.9c-19.2,19.3-52.2,25.2-76.9,13.8c-8.2-3.7-17.8-0.5-22.1,7.3c-11.3,20.5-20.3,42.3-26.6,64.8
			c-2.5,8.7,2.3,17.8,10.8,20.8c27.3,9.5,45.7,35.2,45.9,64c0.1,27.4-17.7,52.7-45.4,64.5c-9.1,3.5-12.9,12.3-10.5,20.9
			c6.6,22.3,15.7,44,27.2,64.5c4.3,7.6,16.4,9.5,24.5,6c24.4-11.1,54.6-5.9,74.8,14.1c20.1,19.9,25.7,50.8,13.9,76.8
			c-3.7,8.1-0.5,17.8,7.3,22.1c20.3,11.2,41.9,20,64.1,26.3c8.7,2.5,17.8-2.3,20.8-10.9c9-25.9,36.4-45.8,63.9-45.9
			c28.8-0.1,54.7,18,64.5,45.2c3,8.5,12.2,13.2,20.9,10.6c11.4-3.3,22.5-7.3,33.4-12c10.4-4.4,20.5-9.4,30.4-14.9
			c7.8-4.4,10.9-14,7.1-22.2c-12.1-25.9-6.8-56.8,13.1-76.9c19.3-19.4,52.2-25.2,76.9-13.8c8.2,3.7,17.8,0.5,22.2-7.3
			c11.3-20.5,20.2-42.3,26.6-64.8C628.1,738.9,623.4,729.8,614.8,726.8z M370.2,759c-52.1,22.1-112.5-2.3-134.6-54.4
			c-22.1-52.1,2.3-112.5,54.4-134.6c52.1-22.1,112.5,2.3,134.6,54.4C446.7,676.5,422.3,736.8,370.2,759z"/>
	</g>
</g>
<g id="Settings_1_">
	<g>
		<path class="st1" d="M970.9,240c-0.7-6.6-8.4-11.5-15.1-11.5c-21.4,0-40.5-12.6-48.4-32.1c-8.1-19.9-2.9-43.2,13.1-57.8
			c5-4.6,5.6-12.3,1.4-17.6c-11-13.9-23.5-26.5-37.1-37.4c-5.3-4.3-13.2-3.7-17.8,1.4c-13.9,15.4-39,21.2-58.3,13.1
			c-20.1-8.5-32.8-28.9-31.6-50.8c0.4-6.9-4.6-12.9-11.5-13.7c-17.5-2-35.1-2.1-52.6-0.1c-6.8,0.8-11.8,6.6-11.6,13.4
			c0.8,21.7-12.1,41.7-32,49.9c-19.1,7.8-44,2.1-57.9-13.2c-4.6-5-12.3-5.7-17.7-1.5c-14,11-26.8,23.6-37.8,37.4
			c-4.3,5.4-3.7,13.2,1.4,17.8c16.3,14.8,21.5,38.2,13.1,58.4c-8.1,19.2-28,31.6-50.9,31.6c-7.4-0.2-12.7,4.7-13.5,11.5
			c-2.1,17.6-2.1,35.5-0.1,53.2c0.7,6.6,8.6,11.5,15.3,11.5c20.4-0.5,39.9,12.1,48.1,32.1c8.2,19.9,2.9,43.2-13.1,57.8
			c-5,4.6-5.6,12.3-1.4,17.6c10.9,13.9,23.3,26.4,37,37.4c5.4,4.3,13.2,3.7,17.8-1.4c14-15.5,39.1-21.2,58.3-13.1
			c20.2,8.5,32.9,28.9,31.7,50.8c-0.4,6.9,4.6,12.9,11.5,13.7c8.9,1,17.9,1.6,27,1.6c8.6,0,17.1-0.5,25.7-1.4
			c6.8-0.7,11.8-6.6,11.6-13.4c-0.8-21.7,12.1-41.7,32-49.9c19.3-7.9,44-2.1,57.9,13.2c4.6,5,12.3,5.6,17.7,1.5
			c14-11,26.7-23.5,37.8-37.4c4.3-5.4,3.7-13.2-1.4-17.8c-16.3-14.7-21.6-38.2-13.1-58.4c7.9-19,27.2-31.7,47.8-31.7l2.9,0.1
			c6.7,0.6,12.9-4.6,13.7-11.5C972.9,275.6,972.9,257.7,970.9,240z M738.8,344.5c-43,0-78-35-78-78s35-78,78-78s78,35,78,78
			S781.9,344.5,738.8,344.5z"/>
	</g>
</g>
</svg>
