<svg version="1" xmlns="http://www.w3.org/2000/svg" width="933.333" height="933.333" viewBox="0 0 700.000000 700.000000"><path d="M504.3 23c-6.9.6-9.7 1.8-11.8 5-1.1 1.7-1.1 2-1.9 9.2-2.4 23.5-23.8 37.8-46.3 31-6.3-1.9-9.3-3.7-17.5-10.3-3.6-3-8.1-2.7-12.6.7-5.8 4.4-19.9 18.4-23.4 23.3-4.8 6.8-4.6 9.7 1.5 16.5 13.1 14.6 12.7 36.8-1 49.7-7 6.6-17.1 10.9-25.5 10.9-5.3 0-9.2 2.3-10.9 6.2-1.7 4.2-1.8 36.9-.1 41 1.4 3.4 5.6 5.6 11.9 6.3 7.2.7 9.1 1.2 13.8 3.5 15.1 7.3 23.2 24.3 19.5 40.8-1.5 6.6-2.2 8.2-7.3 14.4-5.6 7-6.7 9.5-5.6 13 1.3 4.6 13.8 18.3 25.6 28.2 5.7 4.7 10 4.4 16.1-1.3 4.4-4.1 10.4-7.1 17-8.7 22-5.2 42.3 10.3 43.8 33.5.5 7.2 2.2 10.7 6.2 12.2 3.5 1.4 26.6 2 35.7.9 8-.9 11-3.4 11.3-9.8.6-11.5 3.7-19 10.8-26.3 5.3-5.4 11.1-8.5 18.2-9.9 5-.9 12.8-.6 16.7.7 1.1.4 2.2.8 2.5.8 2.7.6 8.5 4 11.6 6.8 8.9 7.9 11.9 7.5 23.4-3 6.4-5.8 12.8-12.4 16.9-17.7 3.1-3.9 3.4-4.4 3.4-7.1 0-3.8-.5-4.8-4.2-8.8-13.2-14.4-13.7-34.8-1.2-48.9 6.5-7.3 15.8-11.9 25.1-12.4 2.5-.1 5.3-.2 6.2-.3.9-.1 2.9-1.1 4.3-2.4 3.1-2.6 3.9-7.7 3.9-23.7-.1-16.8-.5-20-3.1-23.1-2.4-2.8-4-3.4-12.7-4.5-18.9-2.4-31.6-16.7-31.8-35.8-.1-8.3 2.9-16.1 9.4-24.1 7.8-9.8 6.7-12.9-11.1-30.3-14.6-14.3-17.5-15.1-26.8-7.5-8.5 7-15 9.2-25.5 9-6.6-.2-9.4-.7-13.8-2.8-13.1-6.2-20.3-18-21.2-34.7-.2-4.2-3.4-9-6.2-9.3-.6-.1-2.2-.3-3.6-.5-5.5-.7-22.9-.9-29.7-.4zm30.1 111.9c8.8 3.1 16.1 7.8 22.6 14.8 24.3 25.8 17.2 68.3-14.1 84.8-21.5 11.3-46.7 7.6-63.9-9.4-6.7-6.6-12.9-16.9-14.6-24.2-.4-1.9-.9-4.1-1.1-4.9-.9-3.9-.2-18.1 1.2-23.4 3.5-13.3 13.8-26.6 25.7-33.4 12.6-7.3 30.9-9 44.2-4.3zM171.5 257.8c-7.1 1.3-28.6 9.9-41 16.4-5.9 3-10.4 7.3-10.6 9.9-.1 1.1-.2 2.5-.3 3.1-.1.7.9 4.7 2.3 8.8 8.1 25.2-2.9 50.9-25.8 60-7.4 2.9-11.3 3.5-21.1 3.3-5.7-.1-10.4-.8-14.4-2.2-13.4-4.7-16.4-2.2-27.8 22.9-3.9 8.5-9.1 24.1-9.5 28.5-.6 6.1 2.1 9.5 10.9 13.8 4.1 2 9.3 5.3 11.7 7.3 4.7 4.1 12.1 13.6 12.1 15.7 0 .7.4 1.7.9 2.3 1.8 1.7 3.9 12 3.9 18.4-.1 17.5-10.2 33.1-27.5 42.7-8.5 4.8-10.9 7.1-11.7 11.6-.7 3.8 6.7 24.6 13.9 39.4 6.3 12.8 6.5 13.1 11 14.9 4 1.5 5.3 1.5 10.3.4 3.1-.7 6.3-1.7 7.1-2.3 2-1.7 18.8-1.8 24.7-.2 16.5 4.3 30 17.9 34.4 34.5 1.2 4.4 1.5 16.4.6 20.6-.2 1.2-1.4 5.1-2.5 8.8-3.6 11.7-1.8 14.7 13.7 22.1 15.4 7.4 14.2 6.9 26.3 10.9 15.8 5.2 19.5 4 25-7.9 3.7-8 14.7-19.7 21.4-22.9 2.2-1 4.7-2.2 5.6-2.6 3.8-1.9 10.6-3.1 17.5-3.1 18.1.1 34 10.7 42.8 28.5 4.3 8.7 8 11.3 14.9 10.2 5.2-.9 20.7-6.7 32.7-12.3 19.3-9 21-11.6 16.5-25.8-12.8-40.2 22.1-73.9 62.7-60.5 6.2 2.1 7.1 2.2 10.5.9 2.5-1 4.8-3 6.9-6 6.5-9.7 18.4-40.5 18.4-47.7 0-5.7-2.6-8.6-11.7-13.3-37.1-19.1-37.1-67.6 0-86.4 8.3-4.3 10.6-6.7 11.1-11.8.5-5.4-6.6-25.2-15.5-42.8-6.1-12.2-11.6-14.3-24.9-9.6-7.4 2.6-20.4 2.7-28.5.2-16.3-5.1-28.6-18.5-32.5-35.4-1.6-7-.8-18.9 1.9-26.6 2.7-7.6 2.6-10.4-.1-14.5-3.4-4.9-20.9-13.5-40-19.7-15.6-5.1-18.7-4.1-24.7 8-8.7 17.6-26.7 29.1-44.6 28.6-19-.6-35.1-11.7-42.9-29.6-3-6.8-8.6-10.6-14.1-9.5zm74.3 137.1c20.1 4 39.4 18.7 49.2 37.6 5.4 10.5 8.1 22.9 7.5 35-.4 10.6-.8 12.7-4 21.8-3.6 10.4-8.1 17.3-17.5 26.7-6.8 6.8-10.2 9.4-17 12.7-16.1 8-32.6 10.1-48.5 6.4-39.7-9.4-63.7-48.2-53.9-87 9.5-37.9 45.9-60.8 84.2-53.2z"/></svg>